<svg id="Capa_1" data-name="Capa 1" xmlns="http://www.w3.org/2000/svg" xmlns:xlink="http://www.w3.org/1999/xlink" viewBox="0 0 156.62 153.21"><defs><style>.cls-1{fill:none;}.cls-2{clip-path:url(#clip-path);}.cls-3{fill:#debfbe;}.cls-4{fill:#cf302a;}.cls-5{fill:#787680;}.cls-6{fill:#e6e7e8;}</style><clipPath id="clip-path"><rect class="cls-1" x="1.62" y="-1.73" width="154" height="155.94"/></clipPath></defs><g id="Grupo_1279" data-name="Grupo 1279"><g class="cls-2"><g id="Grupo_1180" data-name="Grupo 1180"><path id="Trazado_1230" data-name="Trazado 1230" class="cls-3" d="M156.76,66.73V87.65l-10.34.91L144.6,67.8Z"/><path id="Trazado_1231" data-name="Trazado 1231" class="cls-4" d="M156.76,87.65v41.86l-6.72.57-3.62-41.52Z"/><path id="Trazado_1232" data-name="Trazado 1232" class="cls-5" d="M129.28,131.91a15.63,15.63,0,1,1-16.94-14.2h0A15.63,15.63,0,0,1,129.28,131.91Z"/><path id="Trazado_1233" data-name="Trazado 1233" class="cls-4" d="M101.83,75.64l-2.6,14.09a2.7,2.7,0,0,0,2.51,2.86h.06a2.44,2.44,0,0,0,.54,0l35.77-2.52,4,41.52-2-.13-5.73.44c-1.09-8.57-9.66-14.72-19.13-13.74-9.12,1-15.82,8.19-15.27,16.47l-5.73.45-5.73.44a5.62,5.62,0,0,1-6.24-4.71l-.52-5.21-.66-6.88,11.69-6.35L87,107.16,92.79,102l-12-5.42a45.79,45.79,0,0,1,1.53-5.13L93.16,67.62a11.44,11.44,0,0,1,9.64-6.44l31-2.09a9.51,9.51,0,0,1,2.61.1V69.33L123,70.39,107,71.31A5.59,5.59,0,0,0,101.83,75.64Z"/><path id="Trazado_1234" data-name="Trazado 1234" class="cls-3" d="M130.89,69l1.69,20.76-32.5,2.83a2.48,2.48,0,0,1-2.61-2.34v0a4,4,0,0,1,0-.49l2.17-14.1A5,5,0,0,1,104,71.32Z"/><path id="Trazado_1235" data-name="Trazado 1235" class="cls-6" d="M91.64,102l-5.21,5.21,5.21,5.21-10.57,6.35-.91-10.36a42.66,42.66,0,0,1,.64-11.83Z"/><path id="Trazado_1236" data-name="Trazado 1236" class="cls-6" d="M76.12,106.63a14.93,14.93,0,0,1,.18,5.29l-.73,5.16-12.89-1.82a2.61,2.61,0,0,1-2.22-3l.73-5.15a2.58,2.58,0,0,1,2.89-2.23h.06Z"/><path id="Trazado_1237" data-name="Trazado 1237" class="cls-5" d="M43.9,117.89a15.62,15.62,0,1,1-17.66,13.28h0A15.62,15.62,0,0,1,43.9,117.89Z"/><path id="Trazado_1238" data-name="Trazado 1238" class="cls-4" d="M61.11,115.25l14.4,1.83L73.1,132.55c-.47,2.84-3.4,4.81-6.57,4.43l-5.76-.73L55,135.52c1.34-8.55-5.31-16.46-14.86-17.66s-12.57,4.76-13.91,13.31l-11.56-.73.08-2.16L21.24,87,50,92.8l11.52,1.46c7.32.92,13.2,5.88,14.65,12.38l-13.37-1.7a2.84,2.84,0,0,0-3.28,2.16v.05l-.82,5.16A2.66,2.66,0,0,0,61,115.24h.1Z"/><path id="Trazado_1239" data-name="Trazado 1239" class="cls-3" d="M52.47,92.47l.2.34L26.9,89.91l2.89-20.63,7.39.32.81-.5Z"/><path id="Trazado_1240" data-name="Trazado 1240" class="cls-3" d="M14.31,66.37,11.42,87,.48,85.46v-21Z"/><path id="Trazado_1241" data-name="Trazado 1241" class="cls-4" d="M.48,85.46,11.42,87,5.61,128.28l-5.13-.72Z"/><path id="Trazado_1242" data-name="Trazado 1242" class="cls-4" d="M38,69.11l-.8.5L14.31,66.37l-13.83-2V53.92l25.91,3.65a10.4,10.4,0,0,1,7.43,4.82Z"/><path id="Trazado_1243" data-name="Trazado 1243" class="cls-4" d="M44.76,60.27l-7.82-7.81H50v-13l13,13,13-13v13H91.64L82,62.12a2.6,2.6,0,0,1-1.84.76H48.45a2.6,2.6,0,0,1-1.85-.76Z"/><path id="Trazado_1245" data-name="Trazado 1245" class="cls-4" d="M134.46,131.46l-5.18.45a15.63,15.63,0,0,0-31.13,2.73l-5.18.44a20.76,20.76,0,0,1,18.8-22.54l.13,0c.6,0,1.23-.08,1.83-.08A20.89,20.89,0,0,1,134.46,131.46Z"/><path id="Trazado_1246" data-name="Trazado 1246" d="M17.67,98.39h0a2.59,2.59,0,0,1,2.93-2.21h0l5.16.72A2.61,2.61,0,0,1,28,99.83h0A2.61,2.61,0,0,1,25,102.06l-5.15-.72a2.6,2.6,0,0,1-2.22-2.94Z"/><path id="Trazado_1247" data-name="Trazado 1247" d="M37.36,132.76h0A5,5,0,0,1,43,128.53h0a5,5,0,0,1,4.24,5.61h0a5,5,0,0,1-5.62,4.24h0A5,5,0,0,1,37.36,132.76Z"/><path id="Trazado_1248" data-name="Trazado 1248" d="M157,69.34l-.46-5.19-52.25,4.58a7.8,7.8,0,0,0-7,6.49L94.88,89.45A5.21,5.21,0,0,0,99.5,95.2a4.93,4.93,0,0,0,.55,0l.46,0,43.54-3.82,3.18,36.33-15.77,1.38a18.21,18.21,0,0,0-35.92,3.15l-8,.7a2.58,2.58,0,0,1-1.9-.6,2.6,2.6,0,0,1-.93-1.77L84.5,128l5.19-.46a2.59,2.59,0,0,0,2.36-2.81h0a2.6,2.6,0,0,0-2.81-2.37h0l-5.19.46-.23-2.67,9.07-5.45a2.72,2.72,0,0,0,1.35-2,2.59,2.59,0,0,0-.75-2.13l-3.36-3.36,3.27-3.28a2.7,2.7,0,0,0,.81-2.39,2.6,2.6,0,0,0-1.39-1.87l-9-4.49c.23-.92.46-1.84.76-2.74l9.8-23.79a7.8,7.8,0,0,1,6.55-4.81l53.69-4.68a8.06,8.06,0,0,1,1.77,0l.72-5.16a13.21,13.21,0,0,0-3-.07l-53.69,4.68a13,13,0,0,0-10.91,8l-9.85,24a44.3,44.3,0,0,0-2.21,11.85,18.55,18.55,0,0,0-2.12-3.66,18.16,18.16,0,0,0-12-7.09l-4.14-.58,13.86-9.24,1.86,1.86a2.61,2.61,0,0,0,3.68,0h0a2.6,2.6,0,0,0,0-3.68h0l-3.37-3.37A2.62,2.62,0,0,0,72,76.36L53.26,88.83,36,61a13,13,0,0,0-9.25-6L.84,51.33.12,56.49,26,60.13a7.81,7.81,0,0,1,5.56,3.62l1.65,2.65L.84,61.85.12,67l11.25,1.58L9.2,84.07.84,82.9.12,88.05l8.35,1.18L3.4,125.34.84,125l-.72,5.16,23.39,3.29a18.22,18.22,0,0,0,35.71,5l7.94,1.11A7.78,7.78,0,0,0,76,133v0l2.3-16.32L79.54,131a7.82,7.82,0,0,0,7.77,7.13,4,4,0,0,0,.69,0l8-.7a18.25,18.25,0,0,0,17.71,14.07c.53,0,1.07,0,1.6-.07a18.19,18.19,0,0,0,16.6-17.14l25.08-2.2-.45-5.19-4.12.36-3.18-36.33,7.75-.67-.45-5.19-7.75.7-1.36-15.59ZM73.72,111.56l-.36,2.58-7.74-1.09a2.62,2.62,0,0,1-2.22-3h0a2.6,2.6,0,0,1,2.94-2.21h0l7.48,1a12.75,12.75,0,0,1-.1,2.62ZM16.53,69.32,36.8,72.17v0L47.53,89.46,14.35,84.8Zm38.09,65.85a13,13,0,1,1-12.93-14.83,14.25,14.25,0,0,1,1.85.12,13,13,0,0,1,11.08,14.71Zm13.26-.76-7.95-1.12a18.2,18.2,0,0,0-35.68-5l-15.7-2.2L13.63,90,52.31,95.4l10.32,1.45a12.31,12.31,0,0,1,9.53,6.6l-7.68-1.08a5.21,5.21,0,0,0-5.88,4.43L57.88,112a5.19,5.19,0,0,0,4.42,5.88l10.32,1.45-.73,5.16-5.16-.72a2.59,2.59,0,0,0-2.94,2.2h0A2.6,2.6,0,0,0,66,128.88h0l5.16.73-.36,2.58a2.61,2.61,0,0,1-2.93,2.22Zm19.37-31.75-2.66,2.66a2.6,2.6,0,0,0,0,3.68h0l2.85,2.84-4.14,2.48-.54-6.22a39.12,39.12,0,0,1,.09-7.65Zm39.45,29.47a13,13,0,1,1-14.11-11.84h0c.39,0,.78-.05,1.16-.05A13,13,0,0,1,126.7,132.13Zm16.9-45.9L100,90.15l2.36-14.06a2.6,2.6,0,0,1,2.33-2.17l37.51-3.28Z"/><path id="Trazado_1249" data-name="Trazado 1249" d="M105.54,100l5.19-.46a2.62,2.62,0,0,1,2.83,2.37h0a2.61,2.61,0,0,1-2.37,2.82l-5.19.46a2.6,2.6,0,0,1-2.82-2.37h0A2.59,2.59,0,0,1,105.54,100Z"/><path id="Trazado_1247-2" data-name="Trazado 1247-2" d="M109.12,132.74h0a5,5,0,0,1,5.62-4.23h0a5,5,0,0,1,4.23,5.61h0a5,5,0,0,1-5.61,4.23h0A5,5,0,0,1,109.12,132.74Z"/><path id="Trazado_1251" data-name="Trazado 1251" d="M44.76,60.28h0a2.6,2.6,0,0,0,0-3.68h0l-1.53-1.52H50a2.61,2.61,0,0,0,2.6-2.6h0V45.73l8.57,8.58a2.6,2.6,0,0,0,3.68,0h0l8.58-8.58v6.73A2.59,2.59,0,0,0,76,55.07h9.35L81.22,59.2a2.6,2.6,0,0,0,0,3.68h0a2.6,2.6,0,0,0,3.68,0l8.58-8.57a2.61,2.61,0,0,0-1.84-4.45h-13V39.44a2.61,2.61,0,0,0-4.45-1.85L63,48.78,51.81,37.59a2.6,2.6,0,0,0-3.68,0,2.58,2.58,0,0,0-.76,1.84V49.86H37a2.6,2.6,0,0,0-2.61,2.6,2.64,2.64,0,0,0,.76,1.84l6,6A2.61,2.61,0,0,0,44.76,60.28Z"/><path id="Trazado_1252" data-name="Trazado 1252" d="M61.74,34.23h0a2.65,2.65,0,0,0,2.37-1.53A3.54,3.54,0,0,1,65,31.57a8.65,8.65,0,0,0,0-12,3.53,3.53,0,0,1-.35-5A3.85,3.85,0,0,1,65,14.2a8.54,8.54,0,0,0,1.67-2.44,2.58,2.58,0,0,0-1.39-3.38,2.82,2.82,0,0,0-1-.2h0a2.63,2.63,0,0,0-2.36,1.53A3.72,3.72,0,0,1,61,10.85a8.67,8.67,0,0,0,0,12,3.53,3.53,0,0,1,.35,5h0a3.73,3.73,0,0,1-.34.35,8.32,8.32,0,0,0-1.66,2.43A2.59,2.59,0,0,0,60.71,34,2.82,2.82,0,0,0,61.74,34.23Z"/><path id="Trazado_1253" data-name="Trazado 1253" d="M77.37,29h0a2.65,2.65,0,0,0,2.36-1.53,3.54,3.54,0,0,1,.86-1.13,8.64,8.64,0,0,0,0-12,3.54,3.54,0,0,1-.34-5A3.64,3.64,0,0,1,80.61,9a8.68,8.68,0,0,0,1.67-2.44,2.58,2.58,0,0,0-1.39-3.38,2.78,2.78,0,0,0-1-.2h0A2.65,2.65,0,0,0,77.49,4.5a3.57,3.57,0,0,1-.87,1.14,8.67,8.67,0,0,0,0,12,3.53,3.53,0,0,1,.35,5,3.85,3.85,0,0,1-.35.35A8.32,8.32,0,0,0,75,25.44a2.58,2.58,0,0,0,1.39,3.38A2.73,2.73,0,0,0,77.37,29Z"/></g></g></g></svg>