<svg id="Capa_1" data-name="Capa 1" xmlns="http://www.w3.org/2000/svg" viewBox="0 0 49.11 58.36"><defs><style>.cls-1{fill:#fff;}</style></defs><g id="Grupo_26" data-name="Grupo 26"><g id="Grupo_25" data-name="Grupo 25"><path id="Trazado_58" data-name="Trazado 58" class="cls-1" d="M35,1.51A13,13,0,0,0,26.6,6.06c-1.84,2.23-3.34,5.55-2.76,8.77a11,11,0,0,0,8.49-4.34A12.15,12.15,0,0,0,35,1.51Z"/></g></g><g id="Grupo_28" data-name="Grupo 28"><g id="Grupo_27" data-name="Grupo 27"><path id="Trazado_59" data-name="Trazado 59" class="cls-1" d="M46.67,20.08A14,14,0,0,0,36.1,14.46c-5,0-7.07,2.38-10.52,2.38S19.33,14.47,15,14.47s-8.7,2.58-11.55,7c-4,6.21-3.32,17.88,3.17,27.81,2.32,3.56,5.42,7.56,9.47,7.59,3.61,0,4.63-2.31,9.52-2.34s5.81,2.37,9.41,2.34c4.06,0,7.33-4.47,9.65-8a40,40,0,0,0,3.57-6.71C38.89,38.54,37.38,25.2,46.67,20.08Z"/></g></g></svg>