<svg id="Capa_1" data-name="Capa 1" xmlns="http://www.w3.org/2000/svg" viewBox="0 0 168.66 171.98"><defs><style>.cls-1{fill:#898998;}.cls-2{fill:#debfbe;}.cls-3{fill:#cf302a;}.cls-4{fill:#fff;}.cls-5{fill:#ff5d5d;}</style></defs><g id="transport"><g id="Grupo_1168" data-name="Grupo 1168"><path id="Trazado_1202" data-name="Trazado 1202" class="cls-1" d="M37.11,162.18c4.8-1.57,8-4.49,8-7.83V141.11H29.08v13.24C29.08,157.69,32.31,160.61,37.11,162.18Z"/><path id="Trazado_1203" data-name="Trazado 1203" class="cls-1" d="M132.12,162.35c5.1-1.51,8.58-4.53,8.58-8V141.11H123.55v13.24C123.55,157.82,127,160.84,132.12,162.35Z"/><path id="Trazado_1204" data-name="Trazado 1204" class="cls-1" d="M156.84,76.2a6.46,6.46,0,0,1-6.45-6.46h0V49.08a6.46,6.46,0,1,1,12.91,0V69.74a6.46,6.46,0,0,1-6.46,6.46Z"/><path id="Trazado_1205" data-name="Trazado 1205" class="cls-1" d="M10.89,76.2a6.46,6.46,0,0,0,6.46-6.46h0V49.08a6.46,6.46,0,0,0-12.92,0V69.74a6.46,6.46,0,0,0,6.46,6.46Z"/></g><path id="Trazado_1206" data-name="Trazado 1206" class="cls-2" d="M122.35,4.52H62.1C52,4.52,43.74,11.57,43.74,20.27V84h97V20.27C140.7,11.57,132.48,4.52,122.35,4.52Z"/><path id="Trazado_1207" data-name="Trazado 1207" class="cls-3" d="M120,4.52H62.77c-11.41,0-20.66,8.24-20.66,18.4V25.2H140.7V22.92C140.7,12.76,131.45,4.52,120,4.52Z"/><path id="Trazado_1208" data-name="Trazado 1208" class="cls-3" d="M36.75,119H145.87v22.13H36.75Z"/><path id="Trazado_1209" data-name="Trazado 1209" class="cls-3" d="M136.94,84H47.31c-5,0-9,3.47-9,7.75v30H145.9v-30C145.9,87.42,141.88,84,136.94,84Z"/><path id="Trazado_1210" data-name="Trazado 1210" class="cls-4" d="M52.9,102.84a6.46,6.46,0,1,1-6.46-6.46,6.46,6.46,0,0,1,6.46,6.46Z"/><path id="Trazado_1211" data-name="Trazado 1211" class="cls-4" d="M127.78,102.84a6.46,6.46,0,1,1-6.46-6.46,6.46,6.46,0,0,1,6.46,6.46Z"/><path id="Trazado_1212" data-name="Trazado 1212" class="cls-5" d="M67.12,96.38H100.7V109.3H67.12Z"/><path id="Trazado_1213" data-name="Trazado 1213" d="M160.07,40V34a12,12,0,0,0-12-12H143.9A21.65,21.65,0,0,0,122.29,1.29H45.47A21.65,21.65,0,0,0,23.86,22H19.68a12,12,0,0,0-12,12v5.95A9.7,9.7,0,0,0,1.2,49.08V69.74a9.69,9.69,0,0,0,19.38,0h0V49.08A9.71,9.71,0,0,0,14.12,40V34a5.56,5.56,0,0,1,5.56-5.56h4.15v54a11,11,0,0,0-5.2,9.32v49.4a3.23,3.23,0,0,0,3.23,3.23h2v10a12.27,12.27,0,1,0,24.54,0h0v-10h71v10a12.27,12.27,0,0,0,24.54,0h0v-10h1.94a3.23,3.23,0,0,0,3.23-3.23h0l0-49.4a11,11,0,0,0-5.2-9.32V28.43H148A5.57,5.57,0,0,1,153.6,34v6a9.7,9.7,0,0,0-6.45,9.13V69.74a9.69,9.69,0,1,0,19.37,0V49.08A9.68,9.68,0,0,0,160.07,40ZM14.12,69.74a3.23,3.23,0,0,1-6.46,0V49.08a3.23,3.23,0,0,1,6.46,0Zm128.55,22v26.8H96.89a3.23,3.23,0,0,0,0,6.46h45.75v12.92H25.1V125H69.34a3.23,3.23,0,0,0,0-6.46H25.1V91.7a4.53,4.53,0,0,1,4.52-4.52H138.14A4.54,4.54,0,0,1,142.67,91.7ZM30.29,28.43h31L40.76,48.92a3.23,3.23,0,0,0,4.48,4.66l.09-.09,25-25.06H80.64v7.08L35.43,80.72H30.29Zm86.72,0L104.65,40.8a3.23,3.23,0,0,0,4.56,4.57h0l16.94-16.94h11.32v6l-.08.08-46.2,46.2H87.1V28.43ZM44.56,80.72,80.64,44.64V80.72Zm55.76,0,37.15-37.14V80.72Zm-54.85-73h76.82A15.19,15.19,0,0,1,137.44,22H30.32A15.2,15.2,0,0,1,45.47,7.75Zm-3.55,146.6a5.82,5.82,0,0,1-11.63,0v-10H41.92Zm95.55,0a5.82,5.82,0,0,1-11.63,0v-10h11.63Zm22.6-84.6a3.23,3.23,0,1,1-6.46,0V49.08a3.23,3.23,0,1,1,6.46,0Z"/><path id="Trazado_1216" data-name="Trazado 1216" d="M46.44,93.16a9.69,9.69,0,1,0,9.69,9.68A9.68,9.68,0,0,0,46.44,93.16Zm0,12.91a3.23,3.23,0,1,1,3.23-3.23,3.22,3.22,0,0,1-3.23,3.23Z"/><path id="Trazado_1217" data-name="Trazado 1217" d="M121.32,112.53a9.69,9.69,0,1,0-9.68-9.69h0A9.7,9.7,0,0,0,121.32,112.53Zm0-12.92a3.23,3.23,0,1,1-3.23,3.23A3.23,3.23,0,0,1,121.32,99.61Z"/><path id="Trazado_1218" data-name="Trazado 1218" d="M67.12,93.16a3.22,3.22,0,0,0-3.23,3.22h0V109.3a3.23,3.23,0,0,0,3.23,3.23H100.7a3.23,3.23,0,0,0,3.23-3.23V96.38a3.23,3.23,0,0,0-3.23-3.22Zm30.35,12.91H70.35V99.61H97.47Z"/><path id="Trazado_1219" data-name="Trazado 1219" d="M78.22,18.4h11.3a3.23,3.23,0,0,0,0-6.46H78.22a3.23,3.23,0,0,0,0,6.46Z"/></g><g id="Trazado_1220" data-name="Trazado 1220"><path d="M150,169.73H14.3a3.5,3.5,0,0,1,0-7H150a3.5,3.5,0,0,1,0,7Z"/></g></svg>