<svg id="Capa_1" data-name="Capa 1" xmlns="http://www.w3.org/2000/svg" viewBox="0 0 95 95"><defs><style>.cls-1{fill:#cf302a;}.cls-2{fill:#fff;}</style></defs><g id="Grupo_1142" data-name="Grupo 1142"><circle id="Elipse_1-2" data-name="Elipse 1-2" class="cls-1" cx="47.5" cy="47.5" r="47.5"/><g id="chat-bubble"><path id="Trazado_1148" data-name="Trazado 1148" class="cls-2" d="M70.64,24H39.4a3.13,3.13,0,0,0-3.13,3.13v6.25H58.15a6.25,6.25,0,0,1,6.25,6.25V57.85l6.25,3.65-2.09-9.37h2.09A3.14,3.14,0,0,0,73.77,49V27.13A3.13,3.13,0,0,0,70.64,24Z" transform="translate(-0.77 -1)"/><path id="Trazado_1149" data-name="Trazado 1149" class="cls-2" d="M58.14,36.5H26.89a3.13,3.13,0,0,0-3.12,3.13h0V61.5a3.13,3.13,0,0,0,3.12,3.13h8.33L33.14,74l16.07-9.37h8.93a3.13,3.13,0,0,0,3.13-3.13V39.63a3.13,3.13,0,0,0-3.13-3.13ZM34.7,55.25a1.57,1.57,0,1,1,1.57-1.56,1.56,1.56,0,0,1-1.57,1.56Zm7.82,0a1.57,1.57,0,1,1,1.56-1.56,1.56,1.56,0,0,1-1.56,1.56Zm7.81,0a1.57,1.57,0,1,1,1.56-1.56,1.56,1.56,0,0,1-1.56,1.56Z" transform="translate(-0.77 -1)"/></g></g></svg>