<svg id="Capa_1" data-name="Capa 1" xmlns="http://www.w3.org/2000/svg" viewBox="0 0 150.41 157.66"><defs><style>.cls-1{fill:#cf302a;}.cls-2{fill:#7c8388;}.cls-3{fill:#fff;}.cls-4{fill:#debfbe;}</style></defs><g id="Grupo_1278" data-name="Grupo 1278"><path id="Shape" class="cls-1" d="M116.93,68.5H114.6c-.24,0-.43.8-.43,1.78V77.4c0,1,.19,1.78.43,1.78h9.59c.24,0,.44-.8.44-1.78V70.28c0-1-.2-1.78-.44-1.78Z"/><path id="Trazado_2" data-name="Trazado 2" class="cls-1" d="M13,11.57v36a6,6,0,0,0,4.3,5.7H46.73a6.11,6.11,0,0,0,6.24-6h0v-36a6,6,0,0,0-4.3-5.7H19.24a6.12,6.12,0,0,0-6.25,6h0Z"/><path id="Trazado_8" data-name="Trazado 8" class="cls-2" d="M47,146.78a6,6,0,0,0-6-6H24.13a6,6,0,0,0-4.13,5.7v6H47Z"/><path id="Trazado_1225" data-name="Trazado 1225" d="M143.7,149.77H50.06a.08.08,0,0,1-.08-.07h0v-2.93a9,9,0,0,0-9-9H32.06a.07.07,0,0,1-.07-.08V56.3a.07.07,0,0,1,.07-.07H47a9,9,0,0,0,9-9v-36a9,9,0,0,0-9-9H11a9,9,0,0,0-9,9v36a9,9,0,0,0,9,9H25.92a.07.07,0,0,1,.07.07h0v81.4a.07.07,0,0,1-.07.07H17a9,9,0,0,0-9,9v2.93a.08.08,0,0,1-.08.07H5.18a3.12,3.12,0,0,0-3.13,2.46,3,3,0,0,0,2.41,3.49,3.29,3.29,0,0,0,.54.05H143.7a3,3,0,0,0,3-3h0A3,3,0,0,0,143.7,149.77ZM11,50.24a3,3,0,0,1-3-3V11.33a3.07,3.07,0,0,1,3.07-3.07H46.9A3.07,3.07,0,0,1,50,11.33h0V47.16a3.07,3.07,0,0,1-3.08,3.07H11Zm32.9,99.53H14.07a.07.07,0,0,1-.07-.07h0v-2.85a3.07,3.07,0,0,1,3.07-3.07H40.9A3.08,3.08,0,0,1,44,146.84v2.85a.08.08,0,0,1-.07.08Z"/><g id="Grupo_1" data-name="Grupo 1"><path id="Trazado_16" data-name="Trazado 16" class="cls-3" d="M19.5,13.26H37.73A13.89,13.89,0,0,1,38,16a14.78,14.78,0,0,1-.27,2.81H26v7h9.29a15.11,15.11,0,0,1,.26,2.77,14,14,0,0,1-.26,2.81H26v8.48H38a13.89,13.89,0,0,1,.27,2.73A14.78,14.78,0,0,1,38,45.37H19.51Z"/></g><g id="Trazado_17" data-name="Trazado 17"><path id="Trazado_33" data-name="Trazado 33" d="M50.8,54a3,3,0,0,1-2.11-.87L4.54,9.22A3,3,0,0,1,8.77,5h0L52.92,48.85A3,3,0,0,1,50.8,54Z"/></g><path id="Shape-2" class="cls-1" d="M89.82,68.51H88.44c-.14,0-.26.8-.26,1.78v7.12c0,1,.12,1.78.26,1.78h5.67c.14,0,.26-.8.26-1.78V70.29c0-1-.12-1.78-.26-1.78Z"/><path id="Shape-3" class="cls-1" d="M71.68,70.29H84.14v7.12H71.68a3.56,3.56,0,0,1,0-7.12Z"/><path id="Shape-4" class="cls-1" d="M125.63,70.29h12.45a3.56,3.56,0,0,1,0,7.12H125.63Z"/><circle id="Oval" class="cls-4" cx="68.67" cy="52.49" r="5.34"/><circle id="Oval-2" class="cls-4" cx="139.86" cy="52.49" r="5.34"/><path id="Shape-5" class="cls-1" d="M109.61,81.75l7.72-3S131,90.24,131,108.94s-3,22.1-3,22.1-4.6,4-14.82,4.89h-8.89a107.65,107.65,0,0,1-14.73-2.07s-3.06-6.22-3.06-24.92S96.88,81.75,96.88,81.75Z"/><path id="Shape-6" class="cls-2" d="M109.61,128.7V145a5.34,5.34,0,0,1-10.68,0V128.7Z"/><path id="Shape-7" class="cls-4" d="M104.27,129a29.5,29.5,0,0,0,12.46-2.13v-15a20.3,20.3,0,0,0-24.92,0v15A29.5,29.5,0,0,0,104.27,129Z"/><ellipse id="Oval-3" class="cls-4" cx="107.44" cy="72.29" rx="6.73" ry="10.68"/><g id="Grupo_1172" data-name="Grupo 1172"><path id="Trazado_1226" data-name="Trazado 1226" d="M127.22,62.7l7.35-4.08a8.11,8.11,0,1,0-2.82-6.12,7.47,7.47,0,0,0,.11,1.26l-7.33,4.08a8.21,8.21,0,0,0-4,5.12l-.69,2.77h-3.76a13.43,13.43,0,0,0-23.71,0H88.65l-.7-2.8A8.22,8.22,0,0,0,84,57.85l-7.34-4.09a6.75,6.75,0,0,0,.12-1.27,8.12,8.12,0,0,0-8.12-8.11h0A8.12,8.12,0,1,0,74,58.63l7.35,4.08a2.59,2.59,0,0,1,1.24,1.6L83,66.07a4.62,4.62,0,0,0-1.91,1.45H70.45a6.34,6.34,0,1,0,0,12.67H81.09a4.54,4.54,0,0,0,2.41,1.62,38.05,38.05,0,0,0-2.62,3.7,38.8,38.8,0,0,0-4.46,10.2,42.17,42.17,0,0,0-1.59,10.94c-.18,13.47,1.89,19.6,3.13,23.25.16.48.31.92.44,1.34,0,.09.06.18.1.27a3.69,3.69,0,0,0,.86,1.3c.74.82,6,4.31,16.79,5.62V145a8.12,8.12,0,0,0,16.23.09v-6.7c11.28-1.37,16.48-5.24,16.69-5.41a2.48,2.48,0,0,0,.3-.25c1-1,4.38-5.86,4.38-25.08A39.64,39.64,0,0,0,125,81.81a4.63,4.63,0,0,0,2.42-1.62h10.64a6.34,6.34,0,1,0,0-12.68H127.44a4.51,4.51,0,0,0-1.9-1.44l.43-1.73A2.63,2.63,0,0,1,127.22,62.7Zm-25.51,69a43.73,43.73,0,0,0,5.12,0V145a2.56,2.56,0,0,1-5.12,0ZM91.54,76.41H85.69V71.29h5.15q0,.39,0,.78A13.36,13.36,0,0,0,91.54,76.41ZM104.27,80a7.9,7.9,0,1,1,7.9-7.9h0A7.92,7.92,0,0,1,104.27,80ZM80.39,106.75a36.75,36.75,0,0,1,1.39-9.55,33.45,33.45,0,0,1,3.83-8.75,31.35,31.35,0,0,1,2.81-3.85A22.36,22.36,0,0,1,91,82h4.14a13.49,13.49,0,0,0,18.2,0h4.17c2.3,2,10.65,10.19,10.65,25.7,0,15.12-2.18,20.08-2.74,21.1-1.15.71-5.35,3-13.06,4.07v-1.75a25.1,25.1,0,0,0,5.61-1.72,2.78,2.78,0,0,0,1.51-2.48v-15a2.81,2.81,0,0,0-.85-2A20.1,20.1,0,0,0,107.05,105V91.65a2.78,2.78,0,0,0-5.56,0V105a20.15,20.15,0,0,0-11.67,5,2.78,2.78,0,0,0-.79,2v15a2.8,2.8,0,0,0,1.56,2.5,25.14,25.14,0,0,0,5.56,1.69v1.75c-7.19-1-11.35-3.07-12.78-3.9a60.69,60.69,0,0,1-3-22.18Zm14.2,6.5a18.06,18.06,0,0,1,19.36,0V125a31.24,31.24,0,0,1-9.66,1.29h0A30.94,30.94,0,0,1,94.59,125Zm23.11-42h5.14v5.12H117a13.68,13.68,0,0,0,.73-4.34h0l0-.77Zm19.6-18.8a2.56,2.56,0,1,1,2.56,2.56h0a2.58,2.58,0,0,1-2.56-2.56Zm-66.07,0a2.56,2.56,0,1,1-.75-1.81A2.56,2.56,0,0,1,71.23,52.49Zm8.9,20.57v1.57H70.45a.78.78,0,0,1,0-1.56Zm48.28,1.56V73.06h9.68a.78.78,0,0,1,0,1.56h-9.68Z"/><path id="Trazado_1227" data-name="Trazado 1227" d="M87.47,107.68a36,36,0,0,1,1.64-9.82,2.78,2.78,0,0,0-5.28-1.74,41.21,41.21,0,0,0-1.92,11.55,2.78,2.78,0,0,0,5.56,0Z"/><path id="Trazado_1228" data-name="Trazado 1228" d="M121.07,107.67a2.78,2.78,0,0,0,5.56,0h0a41.08,41.08,0,0,0-1.93-11.53,2.78,2.78,0,1,0-5.28,1.74h0A36.33,36.33,0,0,1,121.07,107.67Z"/><path id="Trazado_1229" data-name="Trazado 1229" d="M104.27,69.29a2.78,2.78,0,1,0,2.78,2.78h0A2.79,2.79,0,0,0,104.27,69.29Z"/></g></g></svg>