<svg id="Capa_1" data-name="Capa 1" xmlns="http://www.w3.org/2000/svg" viewBox="0 0 16.37 15.77"><defs><style>.cls-1{fill:#fff;}</style></defs><g id="communications"><path id="Trazado_1197" data-name="Trazado 1197" class="cls-1" d="M6,11.89V15a.5.5,0,0,0,.5.5.48.48,0,0,0,.4-.2l1.81-2.46Z"/><path id="Trazado_1198" data-name="Trazado 1198" class="cls-1" d="M15.92.24a.49.49,0,0,0-.52,0L.4,8a.5.5,0,0,0-.22.68A.51.51,0,0,0,.46,9l4.17,1.43,8.89-7.6L6.64,11.06l7,2.39a.45.45,0,0,0,.16,0,.51.51,0,0,0,.5-.43L16.12.72a.49.49,0,0,0-.2-.48Z"/></g></svg>