<svg id="Capa_1" data-name="Capa 1" xmlns="http://www.w3.org/2000/svg" viewBox="0 0 55.18 58.36"><defs><style>.cls-1{fill:#fff;}</style></defs><g id="Grupo_18" data-name="Grupo 18"><g id="Grupo_17" data-name="Grupo 17"><path id="Trazado_54" data-name="Trazado 54" class="cls-1" d="M10.34,2.5a5.42,5.42,0,0,0-4.2-.73l25,25,8.09-8.09Z"/></g></g><g id="Grupo_20" data-name="Grupo 20"><g id="Grupo_19" data-name="Grupo 19"><path id="Trazado_55" data-name="Trazado 55" class="cls-1" d="M3,3.8a5.41,5.41,0,0,0-1.1,3.26V51.53A5.41,5.41,0,0,0,3,54.79l25.5-25.5Z"/></g></g><g id="Grupo_22" data-name="Grupo 22"><g id="Grupo_21" data-name="Grupo 21"><path id="Trazado_56" data-name="Trazado 56" class="cls-1" d="M49.75,24.55l-7.27-4.07L33.66,29.3l8.82,8.81L49.75,34a5.44,5.44,0,0,0,0-9.49Z"/></g></g><g id="Grupo_24" data-name="Grupo 24"><g id="Grupo_23" data-name="Grupo 23"><path id="Trazado_57" data-name="Trazado 57" class="cls-1" d="M31.1,31.86l-25,25a5.42,5.42,0,0,0,4.19-.72L39.19,40Z"/></g></g></svg>