<svg id="Capa_1" data-name="Capa 1" xmlns="http://www.w3.org/2000/svg" viewBox="0 0 33.5 33.79"><defs><style>.cls-1{fill:#cf302a;}.cls-2{fill:#fff;}</style></defs><g id="Grupo_1151" data-name="Grupo 1151"><g id="interface"><path class="cls-1" d="M16.75.49a16.4,16.4,0,1,0,16.4,16.4h0A16.42,16.42,0,0,0,16.75.49Z"/></g><g id="Grupo_1067" data-name="Grupo 1067"><g id="Grupo_1056" data-name="Grupo 1056"><g id="Línea_1" data-name="Línea 1"><path class="cls-2" d="M10.35,26.09a1.5,1.5,0,0,1-1.09-2.53L22.53,9.47a1.5,1.5,0,0,1,2.18,2.06L11.44,25.62A1.49,1.49,0,0,1,10.35,26.09Z"/></g><g id="Línea_2" data-name="Línea 2"><path class="cls-2" d="M23.62,26.09a1.53,1.53,0,0,1-1.1-.47L9.26,11.52a1.5,1.5,0,0,1,2.19-2L24.71,23.56a1.5,1.5,0,0,1-1.09,2.53Z"/></g></g></g></g></svg>