<svg id="Capa_1" data-name="Capa 1" xmlns="http://www.w3.org/2000/svg" viewBox="0 0 330.69 74.32"><defs><style>.cls-1{fill:#7f0b0a;}.cls-1,.cls-2{fill-rule:evenodd;}.cls-2{fill:#e4eb24;}.cls-3,.cls-4{isolation:isolate;}.cls-4{font-size:25px;fill:#333;font-family:Montserrat-Bold, Montserrat;font-weight:700;}.cls-5{letter-spacing:-0.02em;}.cls-6{letter-spacing:-0.03em;}.cls-7{letter-spacing:-0.01em;}.cls-8{letter-spacing:-0.01em;}.cls-9{letter-spacing:0em;}</style></defs><g id="Grupo_1183" data-name="Grupo 1183"><g id="Grupo_1182" data-name="Grupo 1182"><path id="Trazado_1230" data-name="Trazado 1230" class="cls-1" d="M48.64,1.6H24.89A23.83,23.83,0,0,0,1.53,21.11H48.64Z"/><path id="Trazado_1231" data-name="Trazado 1231" class="cls-1" d="M281.57,1.6h23.75a23.85,23.85,0,0,1,23.37,19.51H281.57Z"/></g></g><g id="Grupo_1184" data-name="Grupo 1184"><path id="Trazado_1233" data-name="Trazado 1233" class="cls-2" d="M24.89,1.6c19.91,0,23.32,20.15,29.86,34.73,8.08,18,14.1,36.32,38.23,36.32H237.24c24.12,0,30.15-18.31,38.23-36.32C282,21.75,285.41,1.6,305.32,1.6Z"/><g id="_SERVICIO_GRATUITO_" data-name=" SERVICIO GRATUITO " class="cls-3"><text class="cls-4" transform="translate(99.09 33.07)">¡SER<tspan class="cls-5" x="58.32" y="0">V</tspan><tspan x="76.6" y="0">ICIO</tspan></text><text class="cls-4" transform="translate(94.05 58.07)">GR<tspan class="cls-6" x="37.65" y="0">A</tspan><tspan class="cls-7" x="55.92" y="0">T</tspan><tspan x="71.07" y="0">UI</tspan><tspan class="cls-8" x="98.97" y="0">T</tspan><tspan class="cls-9" x="114.17" y="0">O!</tspan></text></g></g></svg>