<svg id="Capa_1" data-name="Capa 1" xmlns="http://www.w3.org/2000/svg" viewBox="0 0 170.45 93.04"><defs><style>.cls-1{fill:#231f20;}.cls-2{fill:#263238;}.cls-3{fill:#e6c300;}.cls-4{fill:#404041;}.cls-5{fill:#d0b000;}.cls-6{fill:#eaeaea;}.cls-7{fill:#fafafa;}.cls-8{fill:#e8505b;}.cls-9{opacity:0.66;}.cls-10{fill:#1ca030;}.cls-11{fill:#32e09d;}</style></defs><g id="Grupo_1203" data-name="Grupo 1203"><path id="Trazado_1234" data-name="Trazado 1234" class="cls-1" d="M109.51,15.09l-3.44-8.6a5.83,5.83,0,0,0-1-1.61,3.67,3.67,0,0,0-.64-3.23C103.09-.16,98.38.13,98.37,2c0,3,5,4.48,6.16,3.7a4.67,4.67,0,0,1,.65,1.15l3.21,8a3.71,3.71,0,0,0-.81.43c0,1.06,3,1.3,3.07,1S110,15.45,109.51,15.09Z"/><g id="Grupo_1190" data-name="Grupo 1190"><circle id="Elipse_7" data-name="Elipse 7" class="cls-2" cx="132.51" cy="75.73" r="15.56"/><circle id="Elipse_8" data-name="Elipse 8" class="cls-1" cx="132.51" cy="75.73" r="8.91"/></g><path id="Trazado_1235" data-name="Trazado 1235" class="cls-3" d="M146.47,64.69s-12.23-.53-15.69,3.59-9.71,8.38-15.83,8.38c0,0-2.79-12.24,8.65-17.95S144.48,59.64,146.47,64.69Z"/><circle id="Elipse_9" data-name="Elipse 9" class="cls-2" cx="132.51" cy="75.73" r="3.99"/><g id="Grupo_1191" data-name="Grupo 1191"><path id="Trazado_1236" data-name="Trazado 1236" class="cls-4" d="M132.51,77.37a1.65,1.65,0,0,1-1.3-.64L113.35,53.44a1.64,1.64,0,0,1,2.6-2l17.86,23.28a1.64,1.64,0,0,1-1.3,2.64Z"/></g><path id="Trazado_1237" data-name="Trazado 1237" class="cls-1" d="M54.13,58.15s-6.5,16.26-6.5,19.27S47.3,81.35,53,81.35H69.6L66.68,61.76l-13-3.61"/><g id="Grupo_1198" data-name="Grupo 1198"><circle id="Elipse_10" data-name="Elipse 10" class="cls-2" cx="36.08" cy="75.73" r="15.56"/><circle id="Elipse_11" data-name="Elipse 11" class="cls-1" cx="36.09" cy="75.73" r="8.91"/></g><path id="Trazado_1243" data-name="Trazado 1243" class="cls-5" d="M24.88,62.52l1.66,1.11a2.39,2.39,0,0,0,2.17.26c2.24-.83,7.55-2.21,12.69.9,7.21,4.37,7.21,13.77,7.21,13.77h5.52S54.27,63.77,45,59c-8.89-4.58-16.7-1-20.21,2.68a.55.55,0,0,0,0,.78A.19.19,0,0,0,24.88,62.52Z"/><path id="Trazado_1244" data-name="Trazado 1244" class="cls-4" d="M69.21,80.42H37A4.42,4.42,0,0,1,32.55,76h0A4.42,4.42,0,0,1,37,71.57H69.21Z"/><path id="Trazado_1245" data-name="Trazado 1245" class="cls-5" d="M134,51.71h-3.48c-2.58,0-19.07,19.36-19.07,19.36h0c.15.28,5.3,10,4.26,11.1s-44.61,1.4-49.46.16a1.11,1.11,0,0,1-.39-.16c-.67-.54-2.52-3.64-4.55-7.27C58,69,54.24,61.68,54.24,61.68s-22.11-10-26.63-23.07c0,0,5.85-2,20.75-2l18.92,4.55a74.35,74.35,0,0,1,9.89,27.62,3.85,3.85,0,0,0,3.27,3.27L99,74.63a2.63,2.63,0,0,0,3-2.24,2.57,2.57,0,0,0-.11-1.2L99.6,64.52a3.79,3.79,0,0,1,.13-2.77l7-15.66A9.44,9.44,0,0,0,107,39l-4.52-13.3a1.14,1.14,0,0,1,1.09-1.51h9.54s12.68,3.92,22.18,25.38A1.53,1.53,0,0,1,134,51.71Z"/><path id="Trazado_1246" data-name="Trazado 1246" class="cls-2" d="M37.19,31.37,51.28,31c.94.06,2.1.08,2.66.84,2.73,3.75,11.37,7.84,18.66,7.84,9.1,0,11.26,8.09,8.85,9.52s-17.75.49-32-5.7l-15.69-6S34,31.37,37.19,31.37Z"/><path id="Trazado_1247" data-name="Trazado 1247" class="cls-6" d="M113.64,27.93h0a2.18,2.18,0,0,1,2.23-.34l11.4,4.79a3.22,3.22,0,0,1,1.18.85c1.76,2,7.3,8.85,5,12.42,0,0-10.3-3.5-20-16.3A1,1,0,0,1,113.64,27.93Z"/><path id="Trazado_1249" data-name="Trazado 1249" class="cls-7" d="M114.65,30.85s13.61,6.72,16.5,13.79c0,0-6.8.48-10.24-2.14S114.65,30.85,114.65,30.85Z"/><path id="Trazado_1252" data-name="Trazado 1252" class="cls-3" d="M120.42,46.1c.22,1.75-13.77,21.42-15.41,22.13-.92.4-3.51-2.24-5.61-5a3.78,3.78,0,0,1,.34-1.51l7-15.65A9.51,9.51,0,0,0,107,39l-4.52-13.3a1.34,1.34,0,0,1-.06-.4,3.24,3.24,0,0,1,1.8.06C105.44,25.89,120.2,44.36,120.42,46.1Z"/><path id="Trazado_1253" data-name="Trazado 1253" class="cls-2" d="M115.75,82.18c-1,1.1-44.61,1.4-49.45.16a1.11,1.11,0,0,1-.39-.16c-.67-.54-2.52-3.64-4.56-7.27l15-.72,28.94,3.17s-2.58-4.8-1.94-5.79,8.1-.5,8.1-.5h0C111.64,71.36,116.8,81.06,115.75,82.18Z"/><path id="Trazado_1254" data-name="Trazado 1254" class="cls-3" d="M76.39,74.19,66.3,82.33a1.09,1.09,0,0,1-.39-.15c-1.76-1.43-11.66-20.51-11.66-20.51S32.14,51.7,27.62,38.6c0,0,30.83,11.43,35.8,14.38S76.39,74.19,76.39,74.19Z"/><path id="Trazado_1255" data-name="Trazado 1255" class="cls-6" d="M39,47.62,34.76,47h0l-2-.29s-1.83,0-4.23-2.85-2.05-3.45-.39-4l4.68,1.9,4.47,1.82a2.56,2.56,0,0,1,1.19,1l1.28,1.92a.72.72,0,0,1-.2,1A.69.69,0,0,1,39,47.62Z"/><path id="Trazado_1256" data-name="Trazado 1256" class="cls-7" d="M39,47.62,34.76,47h0c-.68-.12-2.75-4-3-4.41s1-.81,1-.81l4.47,1.82a2.56,2.56,0,0,1,1.19,1l1.28,1.92a.72.72,0,0,1-.2,1A.69.69,0,0,1,39,47.62Z"/><path id="Trazado_1257" data-name="Trazado 1257" class="cls-5" d="M115.89,24.06a4.57,4.57,0,0,1-1.38.59c-3.14.88-9,.43-12.37.43-2.2,0-7.71-4.13-7.6-4.79a6.24,6.24,0,0,1,1-2c1.31-2,3.76-4.6,6.27-4.88C110.66,12.42,118.29,22.42,115.89,24.06Z"/><path id="Trazado_1258" data-name="Trazado 1258" class="cls-3" d="M115.89,24.06a4.57,4.57,0,0,1-1.38.59C105,23.94,100,17.29,96.77,17.83a3.79,3.79,0,0,0-1.26.44c1.31-2,3.76-4.59,6.27-4.87C110.66,12.42,118.29,22.42,115.89,24.06Z"/><path id="Trazado_1266" data-name="Trazado 1266" class="cls-1" d="M103.59,17.22,99.51,8.59a6.26,6.26,0,0,0-2.72-2.85L94.54,4.56l-.46.87,2.25,1.18A5.27,5.27,0,0,1,98.62,9l3.8,8.06a4.48,4.48,0,0,0-.81.49c.11,1.09,3.23,1.15,3.23.8S104.16,17.56,103.59,17.22Z"/><path id="Trazado_1267" data-name="Trazado 1267" class="cls-2" d="M90,4.77c-.39-1.87,4.3-3.17,6.09-1.64,1.11,1,1.82,2.83,1,4S90.65,7.83,90,4.77Z"/></g><g id="Grupo_1275" data-name="Grupo 1275"><g id="Grupo_1221" data-name="Grupo 1221"><path id="Trazado_1279" data-name="Trazado 1279" class="cls-8" d="M160.57,77.22a1.69,1.69,0,0,1-2.5.23,4.78,4.78,0,0,1-1.21-2.1,11.47,11.47,0,0,1-1-5.43,3.07,3.07,0,0,1,.59-1.54,1.57,1.57,0,0,1,1.48-.61,2.34,2.34,0,0,1,1.41,1.29A13.12,13.12,0,0,1,161,74.58a4.63,4.63,0,0,1-.43,2.64"/></g><g id="Grupo_1222" data-name="Grupo 1222" class="cls-9"><path id="Trazado_1280" data-name="Trazado 1280" class="cls-10" d="M160.57,77.22a1.69,1.69,0,0,1-2.5.23,4.78,4.78,0,0,1-1.21-2.1,11.47,11.47,0,0,1-1-5.43,3.07,3.07,0,0,1,.59-1.54,1.57,1.57,0,0,1,1.48-.61,2.34,2.34,0,0,1,1.41,1.29A13.12,13.12,0,0,1,161,74.58a4.63,4.63,0,0,1-.43,2.64"/></g><g id="Grupo_1223" data-name="Grupo 1223"><path id="Trazado_1281" data-name="Trazado 1281" class="cls-11" d="M158.46,82.08a5.73,5.73,0,0,0-3.52-.18,2.93,2.93,0,0,0-1.67.9,1.25,1.25,0,0,0,.1,1.72,1.72,1.72,0,0,0,1.11.2,4.28,4.28,0,0,1,2.71.19c.45.29.76.8,1.28.92a1.2,1.2,0,0,0,1.27-.68,2.07,2.07,0,0,0,0-1.51A2.32,2.32,0,0,0,158.46,82.08Z"/></g><g id="Grupo_1224" data-name="Grupo 1224"><path id="Trazado_1282" data-name="Trazado 1282" class="cls-11" d="M162.44,78.42a3.41,3.41,0,0,1-.74-3.07,6,6,0,0,1,1.66-2.79,10,10,0,0,1,3.15-2.18A3.57,3.57,0,0,1,168,70a1.54,1.54,0,0,1,1.29.66,2.32,2.32,0,0,1-.19,2.14,25.4,25.4,0,0,1-1.94,3.45,5.71,5.71,0,0,1-2.24,2.2,2.15,2.15,0,0,1-2.56-.17"/></g><g id="Grupo_1226" data-name="Grupo 1226"><g id="Grupo_1225" data-name="Grupo 1225"><path id="Trazado_1283" data-name="Trazado 1283" class="cls-2" d="M161.59,91.2a2.71,2.71,0,0,1-.09-.41l-.19-1.15a15.93,15.93,0,0,0-.38-1.66,12.45,12.45,0,0,0-.75-2A7.41,7.41,0,0,0,159,84.3a3.76,3.76,0,0,0-1.36-1,3.59,3.59,0,0,0-1.11-.26,2.86,2.86,0,0,1-.42,0,2,2,0,0,1,.42,0,3.49,3.49,0,0,1,1.15.21,3.76,3.76,0,0,1,1.43,1A7.27,7.27,0,0,1,160.34,86a13.9,13.9,0,0,1,.75,2,16.49,16.49,0,0,1,.34,1.7c.07.48.11.88.14,1.15A2,2,0,0,1,161.59,91.2Z"/></g></g><g id="Grupo_1228" data-name="Grupo 1228"><g id="Grupo_1227" data-name="Grupo 1227"><path id="Trazado_1284" data-name="Trazado 1284" class="cls-2" d="M161.45,90.32a1.11,1.11,0,0,1,0-.19c0-.15,0-.33,0-.56,0-.49-.08-1.19-.17-2-.17-1.73-.48-4.12-1-6.73s-1-5-1.49-6.62c-.11-.42-.22-.8-.33-1.13s-.18-.62-.26-.85-.12-.39-.17-.53a1.33,1.33,0,0,1,0-.19.56.56,0,0,1,.09.17l.2.53c.08.23.18.51.29.84s.23.7.35,1.12a65.71,65.71,0,0,1,1.55,6.63c.47,2.62.77,5,.91,6.75.07.87.1,1.57.11,2.06v.56A.59.59,0,0,1,161.45,90.32Z"/></g></g><g id="Grupo_1230" data-name="Grupo 1230"><g id="Grupo_1229" data-name="Grupo 1229"><path id="Trazado_1285" data-name="Trazado 1285" class="cls-2" d="M161.11,85.7a3.89,3.89,0,0,1,0-.59c0-.38,0-.92.06-1.59a23.39,23.39,0,0,1,.36-2.35,20.56,20.56,0,0,1,.77-2.79,14.69,14.69,0,0,1,2.52-4.61,6.66,6.66,0,0,1,.63-.67l.26-.26.25-.19a3.19,3.19,0,0,1,.47-.35,15.79,15.79,0,0,0-1.51,1.55,15.39,15.39,0,0,0-2.45,4.59,20.36,20.36,0,0,0-.79,2.77c-.16.77-.29,1.54-.38,2.32s-.11,1.21-.13,1.58A2.92,2.92,0,0,1,161.11,85.7Z"/></g></g></g><g id="Grupo_1276" data-name="Grupo 1276"><g id="Grupo_1206" data-name="Grupo 1206"><g id="Grupo_1205" data-name="Grupo 1205"><path id="Trazado_1273" data-name="Trazado 1273" class="cls-11" d="M6.77,75.2a3,3,0,0,1,1.6,1.74,5.44,5.44,0,0,1,.25,2.4,9.42,9.42,0,0,1-1.94,4.43A6.43,6.43,0,0,1,4.9,79.62C4.73,78,5.4,75,6.77,75.19"/></g></g><g id="Grupo_1208" data-name="Grupo 1208"><g id="Grupo_1207" data-name="Grupo 1207"><path id="Trazado_1274" data-name="Trazado 1274" class="cls-10" d="M8.26,86.31a2.58,2.58,0,0,1,.79-2.47A3.42,3.42,0,0,1,11.56,83a1.43,1.43,0,0,1,1.12.48,1.08,1.08,0,0,1,0,1.11,2.18,2.18,0,0,1-.81.84,4.45,4.45,0,0,1-3.64.87"/></g></g><g id="Grupo_1211" data-name="Grupo 1211"><g id="Grupo_1210" data-name="Grupo 1210"><g id="Grupo_1209" data-name="Grupo 1209"><path id="Trazado_1275" data-name="Trazado 1275" class="cls-2" d="M6.66,91.13a1.87,1.87,0,0,1,0-.32c0-.22.09-.51.14-.87a9,9,0,0,1,.85-2.78,5.53,5.53,0,0,1,2-2.15,3.45,3.45,0,0,1,.8-.38l.23-.06c.06,0,.09,0,.09,0a5.33,5.33,0,0,0-1.08.51,5.73,5.73,0,0,0-1.89,2.14A9.8,9.8,0,0,0,6.92,90c-.07.36-.13.66-.18.86A1.09,1.09,0,0,1,6.66,91.13Z"/></g></g></g><g id="Grupo_1214" data-name="Grupo 1214"><g id="Grupo_1213" data-name="Grupo 1213"><g id="Grupo_1212" data-name="Grupo 1212"><path id="Trazado_1276" data-name="Trazado 1276" class="cls-2" d="M6.46,77.55a.59.59,0,0,1,0,.14l0,.4c0,.35,0,.85.08,1.48.07,1.25.13,3,.16,4.89s0,3.64,0,4.89c0,.62,0,1.13,0,1.48l0,.4a.08.08,0,0,1,.06.09s0,.07-.08.06a.08.08,0,0,1,0-.15V89.35c0-1.25,0-3,0-4.89s-.08-3.64-.12-4.89c0-.62,0-1.12,0-1.48l0-.4A.61.61,0,0,1,6.46,77.55Z"/></g></g></g><g id="Grupo_1216" data-name="Grupo 1216"><g id="Grupo_1215" data-name="Grupo 1215"><path id="Trazado_1277" data-name="Trazado 1277" class="cls-10" d="M6,87.31a6.07,6.07,0,0,0-3.38-4.37,1.28,1.28,0,0,0-1.37,0,1.24,1.24,0,0,0-.08,1.37A5.17,5.17,0,0,0,6,87.44"/></g></g><g id="Grupo_1219" data-name="Grupo 1219"><g id="Grupo_1218" data-name="Grupo 1218"><g id="Grupo_1217" data-name="Grupo 1217"><path id="Trazado_1278" data-name="Trazado 1278" class="cls-2" d="M2.86,84.42a1.39,1.39,0,0,1,.28.12,3.18,3.18,0,0,1,.32.16c.12.07.26.14.41.24l.46.34c.17.14.34.28.5.44a6.66,6.66,0,0,1,1,1.17,6.92,6.92,0,0,1,.64,1.38c.06.21.12.42.16.64a5,5,0,0,1,.09.56,3.87,3.87,0,0,1,0,.48,2,2,0,0,1,0,.35,1.55,1.55,0,0,1,0,.31s0-.44-.08-1.13a5.3,5.3,0,0,0-.1-.55,5.79,5.79,0,0,0-.17-.63A7.58,7.58,0,0,0,5.68,87a6.48,6.48,0,0,0-.93-1.16,4.91,4.91,0,0,0-.48-.43A3.87,3.87,0,0,0,3.82,85C3.25,84.62,2.85,84.44,2.86,84.42Z"/></g></g></g></g></svg>