<svg id="Capa_1" data-name="Capa 1" xmlns="http://www.w3.org/2000/svg" viewBox="0 0 192.5 145.31"><defs><style>.cls-1{fill:#debfbe;}.cls-2{fill:#cf302a;}.cls-3{fill:#7c8388;}.cls-4{fill:#fff;}.cls-5{stroke:#000;}</style></defs><g id="Grupo_1284" data-name="Grupo 1284"><path id="Trazado_34" data-name="Trazado 34" class="cls-1" d="M114.8,38.9l4.22-1,5,.48.37,5.6-1.71,1.84-1.65.81,1.72,5.39-6,1.41-1.42-5.68-2.16-6.5Z"/><path id="Trazado_1" data-name="Trazado 1" class="cls-2" d="M97.21,88.3H21.55a6.54,6.54,0,0,0-4.5,6.22v26.17a6.53,6.53,0,0,0,6.53,6.55H99.26a6.54,6.54,0,0,0,4.5-6.22V94.85a6.54,6.54,0,0,0-6.53-6.55h0Z"/><path id="Trazado_3" data-name="Trazado 3" class="cls-3" d="M97.21,127.57v3.27a9.82,9.82,0,1,1-19.63,0h0v-3.27Z"/><path id="Trazado_4" data-name="Trazado 4" class="cls-1" d="M96.34,88.19,85.89,65.89A6.57,6.57,0,0,0,80,62.12H38.85a6.54,6.54,0,0,0-4.75,3.66L23.6,88.19Z"/><path id="Trazado_5" data-name="Trazado 5" class="cls-4" d="M84.13,101.39a6.54,6.54,0,1,1-6.55,6.53,6.53,6.53,0,0,1,6.55-6.53Z"/><path id="Trazado_6" data-name="Trazado 6" class="cls-3" d="M31.77,127.57v3.27a9.82,9.82,0,1,1-19.63,0h0v-3.27Z"/><path id="Trazado_7" data-name="Trazado 7" class="cls-4" d="M25.23,101.39a6.54,6.54,0,1,1-6.55,6.53,6.54,6.54,0,0,1,6.55-6.53Z"/><path id="Trazado_35" data-name="Trazado 35" d="M100.49,130.27A9.83,9.83,0,0,0,107,121V94.84a9.83,9.83,0,0,0-8.52-9.72L88.86,64.5A9.87,9.87,0,0,0,80,58.85H69.52a3.35,3.35,0,0,0-3.33,2.63,3.28,3.28,0,0,0,2.57,3.86,3.47,3.47,0,0,0,.64.06H80a3.29,3.29,0,0,1,3,1.88L91.25,85H69.12l7.5-7.5A3.27,3.27,0,0,0,72,72.91L59.86,85H42.94l7.5-7.5a3.27,3.27,0,0,0-4.62-4.63L33.68,85H18.1l8.32-17.74a3.28,3.28,0,0,1,3-1.89H73.16a3.35,3.35,0,0,0,3.33-2.63,3.27,3.27,0,0,0-2.57-3.85,2.79,2.79,0,0,0-.64-.07H29.38A9.85,9.85,0,0,0,20.5,64.5L10.83,85.12a9.83,9.83,0,0,0-8.51,9.73V121a9.83,9.83,0,0,0,6.55,9.25v.56a13,13,0,0,0,1.76,6.55h-6a3.27,3.27,0,0,0-3.27,3.27h0a3.28,3.28,0,0,0,3.27,3.28H181.23a3.36,3.36,0,0,0,3.33-2.63,3.27,3.27,0,0,0-2.57-3.86,3.47,3.47,0,0,0-.64-.06H98.72a13,13,0,0,0,1.77-6.55Zm-78.3,7.35a6.55,6.55,0,0,1-6.78-6.31h0a3.84,3.84,0,0,1,0-.48H28.5a6.55,6.55,0,0,1-6.3,6.79Zm11.1-.24a13.1,13.1,0,0,0,1.76-6.55H74.3a13,13,0,0,0,1.77,6.55Zm54.34.24a6.55,6.55,0,0,1-6.78-6.31,3.84,3.84,0,0,1,0-.48H93.94a6.56,6.56,0,0,1-6.31,6.79ZM100.48,121a3.27,3.27,0,0,1-3.27,3.27H12.14A3.27,3.27,0,0,1,8.87,121V94.84a3.27,3.27,0,0,1,3.27-3.27H97.21a3.27,3.27,0,0,1,3.27,3.27Z"/><path id="Trazado_12" data-name="Trazado 12" d="M84.12,98.12a9.82,9.82,0,1,0,9.82,9.81h0A9.82,9.82,0,0,0,84.12,98.12Zm0,13.08a3.27,3.27,0,1,1,3.28-3.27h0a3.27,3.27,0,0,1-3.28,3.27Z"/><path id="Trazado_13" data-name="Trazado 13" d="M25.23,98.12A9.82,9.82,0,1,0,35,107.93h0A9.81,9.81,0,0,0,25.23,98.12Zm0,13.08a3.27,3.27,0,1,1,3.27-3.27h0a3.27,3.27,0,0,1-3.27,3.27Z"/><path id="Trazado_15" data-name="Trazado 15" d="M64.49,104.66H44.86a3.28,3.28,0,0,0,0,6.55H64.5a3.28,3.28,0,0,0,0-6.55Z"/><rect id="Rect치ngulo_7" data-name="Rect치ngulo 7" x="105.03" y="0.98" width="5.7" height="8.61" rx="2.35" transform="translate(0.08 12.08) rotate(-6.41)"/><rect id="Rect치ngulo_8" data-name="Rect치ngulo 8" x="86.69" y="23.62" width="8.63" height="5.71" rx="2.62" transform="translate(-2.39 10.33) rotate(-6.41)"/><path id="Trazado_36" data-name="Trazado 36" d="M94.21,8.3l2.35,1.87a2.57,2.57,0,0,1,.4,3.6l0,0v0a2.57,2.57,0,0,1-3.58.35L91,12.29a2.56,2.56,0,0,1-.39-3.6l0,0h0A2.55,2.55,0,0,1,94.21,8.3Z"/><path id="Trazado_37" data-name="Trazado 37" class="cls-2" d="M166.88,136.28h-9.59l-.12-.27a9.07,9.07,0,0,1,1.38-.81c.91-.37,1.86-.64,2.79-1,1.87-.66,2.33-1.7,1.52-3.53-2.18-5-4.3-9.92-6.61-14.81a15,15,0,0,1-1.6-7.63,38.5,38.5,0,0,0,0-4,2.13,2.13,0,0,0-2-2.27h-.31a20.67,20.67,0,0,0-4,0,3.23,3.23,0,0,0-2.1,1.32,54.59,54.59,0,0,0-3.6,7.32,9.56,9.56,0,0,0-.43,4.56c1,6.68,2.18,13.33,3.29,20,0,.31,0,.62.08,1h-9.74l-.16-.2a9.22,9.22,0,0,1,1.33-.83c1-.38,1.95-.66,2.92-1,1.66-.6,2.14-1.53,1.58-3.23-1.65-5-3.28-10-5-15a8.35,8.35,0,0,1,.16-6.25c2.11-5.12,4.12-10.28,6.21-15.41.16-.39.68-.9,1-.91,5.68,0,11.35,0,17.2,0v1.51c0,5.28.07,10.56,0,15.84-.07,3.21,1.07,6.14,1.78,9.17,1.2,5.13,2.55,10.23,3.83,15.34C166.76,135.54,166.8,135.85,166.88,136.28Z"/><path id="Trazado_38" data-name="Trazado 38" class="cls-2" d="M184.74,84.73H181.8c-.36-2.71-.75-5.43-1.07-8.16-.38-3.3-1.88-4.68-5.17-4.68H129c-4.1,0-6.35-1.75-7.43-5.75q-1.29-4.78-2.56-9.57a1.5,1.5,0,0,1,0-.37l2.46-.63c1.1,2.9,2.17,5.73,3.25,8.56,1,2.63,2.22,3.47,5.06,3.47h47.63c4.72,0,7.27,2.57,7.27,7.31Z"/><path id="Trazado_39" data-name="Trazado 39" class="cls-1" d="M149.76,76.26H161V80.4H149.76Z"/><path id="Trazado_40" data-name="Trazado 40" class="cls-1" d="M149.76,84.81H161V89H149.76Z"/><path id="Trazado_41" data-name="Trazado 41" class="cls-2" d="M125.68,24.29l-10.94,1.92L114,22l10.88-1.94Z"/><path id="Trazado_42" data-name="Trazado 42" class="cls-1" d="M152.41,54.71c-1.3,0,.4,0-.9,0,0,0-.06-1.39-.07-2.65a11,11,0,0,1,0-1.62c2.68,0,2.37,0,5.06,0a2.16,2.16,0,0,1,.53,4.28,2,2,0,0,1-.49,0c-1.39,0-2.77,0-4.16,0Z"/><path id="Trazado_43" data-name="Trazado 43" class="cls-2" d="M151.43,46.21c.42-2.54,1.87-4.36,3.49-4.39s3.13,1.81,3.56,4.39Z"/><path id="Trazado_44" data-name="Trazado 44" class="cls-2" d="M151.43,58.91h7c-.2,2.21-1.65,4.21-3.22,4.38C153.47,63.49,151.87,61.63,151.43,58.91Z"/><path id="Trazado_45" data-name="Trazado 45" class="cls-1" d="M186.15,97.62h-4.92c.52-2.8,1-5.56,1.58-8.46h1.61C185,92,185.56,94.77,186.15,97.62Z"/><path id="Trazado_46" data-name="Trazado 46" class="cls-5" d="M144,63.3c-2.11-2.8-2.33-5.8-2.21-8.88a71.71,71.71,0,0,1,.29-8.16,10.5,10.5,0,0,1,11.33-8.7A10.72,10.72,0,0,1,163.24,48a84.09,84.09,0,0,1-.05,9.12,39.7,39.7,0,0,1-1.52,6.17c.09,0,.51,0,.94,0h15.17c6.64,0,11.23,4.58,11.25,11.2,0,3.85.1,7.7,0,11.54a32.05,32.05,0,0,0,1.22,9.79c1.06,3.78-.82,6.13-4.72,6.14-1.48,0-3,0-4.43,0a4.27,4.27,0,0,1-4.32-4.22,4.81,4.81,0,0,1,.12-1.07,1.1,1.1,0,0,1,.06-.26,20.6,20.6,0,0,0,.61-11.06c-.56-3-.8-6-1.19-9.08h-11v1.44c0,11.24-.1,22.47.08,33.7,0,2.63,1,5.25,1.62,7.84,1.25,5.13,2.57,10.23,3.85,15.35.92,3.7-.92,6-4.75,6h-11c-1.91,0-2.66-.78-2.68-2.7a6.54,6.54,0,0,1,4.7-6.87c.28-.1.56-.23.94-.39-1.33-3-2.68-5.9-3.92-8.84a76.39,76.39,0,0,1-3.6-9.21c-.53-2-.1-4.17-.1-6.26l-.45-.22c-.3.27-.7.49-.87.83-.92,1.74-1.84,3.48-2.62,5.28a4.27,4.27,0,0,0-.2,2.21c1.08,6.66,2.26,13.31,3.3,20a8.07,8.07,0,0,1-.24,3.78,3.72,3.72,0,0,1-3.72,2.39q-6.18,0-12.35,0A2.17,2.17,0,0,1,131,138.7a2.67,2.67,0,0,1,0-.4c-.17-3.74,1.42-6.06,5-7.32.25-.09.49-.2.85-.36q-1.62-4.91-3.24-9.77c-.43-1.31-.84-2.63-1.32-3.94a11.34,11.34,0,0,1,.26-8.49c2.25-5.5,4.44-11,6.61-16.55a6.41,6.41,0,0,0,.42-2.2c0-4.43,0-8.86,0-13.48h-2c-3,0-6,0-9,0a11,11,0,0,1-11.1-8.53q-3.22-11.89-6.37-23.82c-1-3.59.43-6.45,3.82-8,.16-.07.31-.17.59-.32l-1.06-4.83-6.08,1c-1.77.29-2.6-.27-2.92-2-.47-2.54-.94-5.1-1.36-7.65-.29-1.77.35-2.65,2-3l16.1-2.88c1.66-.3,2.6.28,2.93,1.93.53,2.67,1,5.36,1.47,8,.25,1.48-.48,2.42-2.09,2.73-1.88.37-3.77.68-5.84,1.05l1.16,5.18a16.63,16.63,0,0,1,3.13,1c2.23,1.28,3.8,7.82,2.48,10-.48.81-.77,1.15-1.29,1.93h-.86c.16.5.3,1,.48,1.48q2.4,6.4,4.79,12.8c.21.57.39,1,1.18,1C134.44,63.28,139.05,63.3,144,63.3Zm22.9,73c-.08-.43-.11-.74-.19-1-1.28-5.11-2.63-10.21-3.83-15.34-.7-3-1.84-6-1.78-9.17.1-5.28,0-10.56,0-15.84V93.38c-5.85,0-11.53,0-17.2,0-.36,0-.88.52-1,.91-2.1,5.13-4.1,10.29-6.22,15.41a8.35,8.35,0,0,0-.16,6.25c1.74,5,3.37,10,5,15,.56,1.7.09,2.63-1.58,3.23-1,.35-2,.63-2.91,1a8.07,8.07,0,0,0-1.34.83l.16.2h9.73c0-.42,0-.73-.08-1-1.11-6.66-2.29-13.3-3.28-20a9.42,9.42,0,0,1,.43-4.56,53.41,53.41,0,0,1,3.6-7.32,3.21,3.21,0,0,1,2.09-1.32,20.77,20.77,0,0,1,4,0,2.11,2.11,0,0,1,2.28,2c0,.1,0,.2,0,.3.06,1.34.06,2.69,0,4a15,15,0,0,0,1.6,7.63c2.31,4.88,4.43,9.86,6.61,14.81.81,1.83.35,2.87-1.53,3.53-.92.32-1.87.59-2.78,1a9.17,9.17,0,0,0-1.39.81l.13.27Zm17.86-51.55V74.91c0-4.74-2.55-7.31-7.27-7.31H129.85c-2.85,0-4.06-.83-5.06-3.46-1.08-2.83-2.15-5.67-3.26-8.57l-2.46.63a1.5,1.5,0,0,0,0,.37c.84,3.19,1.7,6.38,2.55,9.58,1.08,4,3.34,5.74,7.43,5.74h46.56c3.28,0,4.78,1.39,5.17,4.68.32,2.73.71,5.45,1.06,8.16ZM144,76.26V80.4h17V76.26Zm0,8.55V89h17V84.81ZM122.11,24.92l-.8-4.23L108.68,23l.74,4.21Zm30.3,29.79h0c1.39,0,2.77,0,4.16,0a2.16,2.16,0,0,0,.45-4.29,2,2,0,0,0-.49,0q-4,0-8.05,0a2.14,2.14,0,0,0-2.37,1.87,1.31,1.31,0,0,0,0,.28,2.16,2.16,0,0,0,2.22,2.13h.2c1.3,0,2.59,0,3.89,0ZM120,51.47c-.39-1-.72-2-1.06-2.88-1.38-3.69-1.06-4.24,2.86-4.74l-1-4.16c-1.24,0-2.4-.06-3.55,0a2,2,0,0,0-2,1.95,2.16,2.16,0,0,0,.06.51c.77,3.29,1.69,6.54,2.57,9.89Zm26.56-5.26h11.92a6.23,6.23,0,0,0-6-4.38,6.14,6.14,0,0,0-5.89,4.38Zm0,12.7A6.16,6.16,0,0,0,153,63.29c2.65-.17,5.1-2.17,5.43-4.38Zm39.59,38.72c-.59-2.86-1.16-5.66-1.73-8.47h-1.61c-.54,2.9-1.06,5.66-1.58,8.47Z"/></g></svg>